<?xml version="1.0" standalone="no"?>
<!DOCTYPE svg PUBLIC "-//W3C//DTD SVG 20010904//EN"
 "http://www.w3.org/TR/2001/REC-SVG-20010904/DTD/svg10.dtd">
<svg version="1.0" xmlns="http://www.w3.org/2000/svg"
 width="512.000000pt" height="512.000000pt" viewBox="0 0 512.000000 512.000000"
 preserveAspectRatio="xMidYMid meet">

<g transform="translate(0.000000,512.000000) scale(0.100000,-0.100000)"
fill="#008000" stroke="none">
<path d="M3385 4866 c-125 -31 -101 -9 -1119 -1024 -527 -527 -978 -983 -1002
-1015 -114 -153 -114 -381 0 -534 24 -32 473 -486 997 -1009 875 -873 959
-954 1019 -983 384 -185 784 201 613 593 -24 56 -86 121 -827 864 l-801 802
806 808 c740 741 808 812 832 867 76 177 44 366 -88 504 -113 119 -272 166
-430 127z m217 -176 c107 -40 182 -151 182 -270 0 -126 39 -81 -874 -995 -782
-782 -830 -832 -830 -865 0 -33 47 -82 811 -845 446 -446 824 -829 840 -852
16 -23 36 -69 45 -102 56 -220 -152 -413 -372 -346 -59 18 -65 24 -1041 998
-1083 1081 -1026 1018 -1026 1147 0 128 -55 67 1011 1132 532 531 983 974
1002 984 80 40 170 45 252 14z"/>
</g>
</svg>
