<?xml version="1.0" standalone="no"?>
<!DOCTYPE svg PUBLIC "-//W3C//DTD SVG 20010904//EN"
 "http://www.w3.org/TR/2001/REC-SVG-20010904/DTD/svg10.dtd">
<svg version="1.0" xmlns="http://www.w3.org/2000/svg"
 width="512.000000pt" height="512.000000pt" viewBox="0 0 512.000000 512.000000"
 preserveAspectRatio="xMidYMid meet">

<g transform="translate(0.000000,512.000000) scale(0.100000,-0.100000)"
fill="#008000" stroke="none">
<path d="M1535 4856 c-78 -19 -141 -54 -206 -113 -140 -130 -181 -337 -102
-517 24 -56 86 -121 827 -864 l801 -802 -806 -808 c-740 -741 -808 -812 -832
-867 -76 -177 -44 -366 88 -504 141 -148 342 -182 530 -89 52 26 183 153 1019
986 527 527 978 983 1002 1015 114 153 114 381 0 534 -24 32 -473 486 -997
1009 -875 873 -959 954 -1019 983 -104 50 -203 62 -305 37z m186 -153 c52 -15
93 -55 1036 -997 1083 -1080 1026 -1017 1026 -1146 0 -128 55 -67 -1011 -1132
-697 -696 -980 -972 -1012 -989 -62 -31 -161 -37 -231 -14 -113 38 -192 151
-193 275 0 126 -39 81 874 995 782 782 830 832 830 865 0 33 -47 82 -811 845
-446 446 -824 829 -840 852 -95 136 -59 330 78 414 82 51 161 61 254 32z"/>
</g>
</svg>
